PathFileType	4	(X/Y/Z)	./resultDataOpenSim/trcMotMarkerGrf/sub06/qtm-05-01.trc
DataRate	CameraRate	NumFrames	NumMarkers	Units	OrigDataRate	OrigDataStartFrame	OrigNumFrames
250.000000	250.000000	9	24	m	250.000000	133	531
Frame#	Time	L.Toe.Tip			R.Toe.Tip			L.Ankle.Lat			R.Ankle.Lat			L.Ankle.Med			R.Ankle.Med			L.Heel			R.Heel			L.Knee.Lat			R.Knee.Lat			L.Knee.Med			R.Knee.Med			L.Thigh.Upper			R.Thigh.Upper			L.ASIS			R.ASIS			V.Sacral			L.Acromium			R.Acromium			C7			L.Elbow			R.Elbow			L.Wrist.Lat			R.Wrist.Lat
		X1	Y1	Z1	X2	Y2	Z2	X3	Y3	Z3	X4	Y4	Z4	X5	Y5	Z5	X6	Y6	Z6	X7	Y7	Z7	X8	Y8	Z8	X9	Y9	Z9	X10	Y10	Z10	X11	Y11	Z11	X12	Y12	Z12	X13	Y13	Z13	X14	Y14	Z14	X15	Y15	Z15	X16	Y16	Z16	X17	Y17	Z17	X18	Y18	Z18	X19	Y19	Z19	X20	Y20	Z20	X21	Y21	Z21	X22	Y22	Z22	X23	Y23	Z23	X24	Y24	Z24

133	0.528	-0.076287282	0.089137887	-0.050693123	-0.80513526	0.035204999	0.10559588	-0.2031328	0.06822885	-0.065327499	-0.93340483	0.068707186	0.11863634	-0.20455597	0.086500396	0.018390029	-0.90588054	0.081672558	0.031713802	-0.25061488	0.0094596377	-0.012998308	-0.99072355	0.051607505	0.052478235	-0.33777338	0.41168777	-0.074395696	-0.70218017	0.38745378	0.15388244	-0.34545061	0.40624747	0.050605036	-0.72465055	0.39223741	0.021933575	-0.53025101	0.74946815	-0.12551713	-0.6014082	0.73537047	0.21846167	-0.46969778	0.79479359	-0.071054758	-0.49109123	0.78949696	0.17964773	-0.66775615	0.86225142	0.042938368	-0.59026442	1.2689125	-0.14090777	-0.55676218	1.2707557	0.22128393	-0.65081847	1.3034653	0.04560473	-0.68781784	0.97451803	-0.17688788	-0.57514691	0.95925006	0.32995164	-0.62531264	0.75064283	-0.25113188	-0.34675952	0.86002519	0.29872448
134	0.532	-0.069011911	0.086502935	-0.049661886	-0.80499712	0.035203163	0.10558453	-0.19568622	0.065368357	-0.064917768	-0.93285811	0.069484828	0.11844968	-0.19759464	0.083478401	0.018746621	-0.90501509	0.082241903	0.03155516	-0.24333948	0.0063885391	-0.013060953	-0.99026609	0.053045186	0.052188586	-0.33061814	0.40886515	-0.07399597	-0.69765004	0.38538262	0.15384355	-0.33883984	0.4032306	0.050961574	-0.7193737	0.39012761	0.021763464	-0.52223719	0.74680415	-0.12554788	-0.59557463	0.73277368	0.21837637	-0.46197339	0.7919311	-0.070589758	-0.48472359	0.78679493	0.17991706	-0.66049218	0.85962585	0.042620947	-0.58431263	1.265967	-0.14124932	-0.55098742	1.2679219	0.22100426	-0.64499057	1.3005597	0.045142698	-0.68209415	0.97180453	-0.17667678	-0.56768931	0.95642925	0.3298965	-0.62112754	0.74767768	-0.25164607	-0.33881578	0.85823466	0.29818915
135	0.536	-0.062066407	0.083534217	-0.048559367	-0.80496116	0.03517336	0.10561145	-0.18859746	0.062327468	-0.064497574	-0.93226418	0.070331743	0.11829497	-0.19105416	0.080335548	0.019117731	-0.90408331	0.082885275	0.031429571	-0.23655256	0.0032274427	-0.013025251	-0.98974685	0.054601966	0.051936985	-0.32344936	0.40603429	-0.073667029	-0.69305178	0.38334644	0.15385977	-0.33212721	0.40026275	0.05123239	-0.71404861	0.38801015	0.021638582	-0.51423672	0.74418385	-0.12557939	-0.58972233	0.73020389	0.21833745	-0.45423687	0.78912228	-0.070111492	-0.47831484	0.7840763	0.18018384	-0.65318335	0.85699446	0.042312145	-0.57828817	1.2629843	-0.14161256	-0.54519477	1.2650813	0.22070763	-0.63919982	1.2976197	0.044732358	-0.67630187	0.9690696	-0.17654783	-0.56019339	0.95360051	0.32978985	-0.6166574	0.74473495	-0.25208517	-0.33093756	0.85639874	0.2976496
136	0.54	-0.055462904	0.08025195	-0.047401693	-0.80505355	0.035088236	0.10567763	-0.18186557	0.059112035	-0.064064595	-0.93160809	0.071262934	0.11817916	-0.1849025	0.077077249	0.019530851	-0.90305325	0.083608754	0.031356956	-0.23021884	-3.349858e-06	-0.012919664	-0.98920005	0.056305315	0.051748055	-0.3162168	0.40321679	-0.073389517	-0.68837311	0.38135409	0.15393745	-0.32530881	0.39734461	0.051432409	-0.70864546	0.38588077	0.021572058	-0.50623871	0.74161219	-0.12561217	-0.58386242	0.72768106	0.21837181	-0.44648458	0.78636516	-0.069633256	-0.47181836	0.7813533	0.18046467	-0.64583174	0.85435822	0.042010865	-0.57220137	1.2599793	-0.14200048	-0.53938347	1.2622387	0.22038334	-0.63341326	1.2946572	0.044362053	-0.67042583	0.96630368	-0.17649808	-0.55266091	0.95077075	0.32963352	-0.61195763	0.74180891	-0.25246445	-0.323132	0.85454315	0.2971294
137	0.544	-0.049221144	0.076680332	-0.046219133	-0.80517779	0.034964742	0.1057626	-0.17549032	0.055725619	-0.063615305	-0.93087333	0.07229096	0.11810997	-0.17900751	0.07368631	0.020012578	-0.90194241	0.084423119	0.031364602	-0.22429723	-0.0033120182	-0.012798241	-0.98870332	0.058190443	0.051669593	-0.30890749	0.40043184	-0.073156314	-0.68360138	0.37940709	0.15407564	-0.31838927	0.39447833	0.051575479	-0.70312763	0.38372191	0.021571609	-0.49823266	0.73908605	-0.12564505	-0.57798384	0.72519876	0.21845131	-0.4386854	0.78365609	-0.069162631	-0.46518322	0.77863527	0.18078111	-0.63843942	0.85171805	0.041716011	-0.56604821	1.2569663	-0.1424103	-0.53356857	1.2593999	0.2200338	-0.62755569	1.2916873	0.043977261	-0.66447256	0.96351102	-0.17649032	-0.54509696	0.94795368	0.32942218	-0.60717745	0.73887513	-0.25285169	-0.31535682	0.85266915	0.29661869
138	0.548	-0.043361487	0.072848378	-0.045055767	-0.80519817	0.034859841	0.10584848	-0.16947578	0.05216936	-0.063145416	-0.9300435	0.073419116	0.11809944	-0.17328748	0.070146302	0.020560597	-0.90084038	0.085332175	0.031460653	-0.21877048	-0.0067164981	-0.012674808	-0.9882573	0.060259639	0.051710985	-0.30153177	0.39769064	-0.072965303	-0.67876445	0.37748623	0.15426667	-0.31137581	0.39166611	0.051672486	-0.69747343	0.3815147	0.021640616	-0.49019828	0.73660288	-0.12567647	-0.57208699	0.72275295	0.21854079	-0.4308186	0.78099276	-0.06869949	-0.45840249	0.77592488	0.18113583	-0.63100848	0.8490749	0.041426487	-0.55982126	1.2539555	-0.14284266	-0.52778508	1.2565686	0.21966611	-0.62158167	1.2887181	0.043535882	-0.65844727	0.96070082	-0.17650079	-0.53751178	0.94515556	0.32915616	-0.60238062	0.73592488	-0.25328636	-0.30756921	0.85076078	0.29609526
139	0.552	-0.037897211	0.068790443	-0.043956452	-0.80507612	0.034811546	0.10593674	-0.16382918	0.048444903	-0.062651924	-0.92912255	0.074647207	0.11816179	-0.16783487	0.066439668	0.021117015	-0.89984224	0.086328173	0.031629653	-0.21364381	-0.010238281	-0.012537417	-0.98774558	0.062468493	0.051820385	-0.29410421	0.39499886	-0.072811106	-0.67394469	0.37555275	0.1544953	-0.30427452	0.38890768	0.051733517	-0.69169879	0.37925692	0.021776671	-0.48209526	0.73416425	-0.12570191	-0.56617686	0.72034374	0.21861738	-0.42292069	0.77837497	-0.068245988	-0.45153445	0.7732127	0.1814973	-0.62354099	0.84642972	0.041141197	-0.55351463	1.2509518	-0.14330082	-0.52205497	1.2537474	0.21927981	-0.61548745	1.2857534	0.043026696	-0.65234762	0.95788083	-0.17652731	-0.52992156	0.94237615	0.32884402	-0.59755275	0.73296774	-0.25376845	-0.29975625	0.84881094	0.29554917
140	0.556	-0.032828967	0.06454061	-0.042941509	-0.80487934	0.034808665	0.10603781	-0.15855564	0.04456089	-0.062134391	-0.928146	0.075969765	0.11830391	-0.1627833	0.062561591	0.021627228	-0.89893172	0.08740414	0.031852828	-0.20893285	-0.013896426	-0.012388707	-0.98708835	0.064767595	0.051969263	-0.28662611	0.3923628	-0.072688173	-0.66920628	0.37357942	0.15474753	-0.29708628	0.38619913	0.051768009	-0.68585988	0.37696478	0.021972206	-0.47388979	0.73177195	-0.12571769	-0.5601821	0.7179233	0.21859954	-0.41504758	0.77580153	-0.067809935	-0.4446538	0.77048586	0.18182333	-0.61603905	0.84378346	0.040859044	-0.54712305	1.2479574	-0.1437846	-0.51634604	1.2509441	0.21887253	-0.60929109	1.2827981	0.042461867	-0.64616996	0.95505802	-0.17657267	-0.52234223	0.93961593	0.3284926	-0.59270033	0.73001221	-0.25429963	-0.29193382	0.84683068	0.29498536
141	0.56	-0.028144274	0.060124846	-0.04199336	-0.80468576	0.034821944	0.10615765	-0.15365306	0.040539706	-0.061591264	-0.92715048	0.077377042	0.118521	-0.1581349	0.058544593	0.022104923	-0.89796567	0.088568592	0.032124878	-0.20464744	-0.017678494	-0.01225319	-0.98633939	0.067142314	0.052201794	-0.27908278	0.38979101	-0.072595293	-0.66449514	0.37158734	0.15503692	-0.28980886	0.38353562	0.051785103	-0.68001878	0.37465375	0.02222364	-0.46560238	0.72942596	-0.12572753	-0.55386751	0.71534045	0.21824885	-0.407207	0.77327015	-0.067397077	-0.4377942	0.76774558	0.18209757	-0.60850471	0.84113705	0.040578925	-0.54064041	1.2449756	-0.14429121	-0.51057958	1.2481727	0.21845138	-0.60300635	1.2798582	0.041856288	-0.63991539	0.95224042	-0.17663258	-0.51478221	0.93687787	0.32810086	-0.58786265	0.72706027	-0.25489897	-0.28411822	0.84483445	0.29441105
